<?xml version="1.0" encoding="utf-8"?>
<!-- Generator: Adobe Illustrator 24.0.1, SVG Export Plug-In . SVG Version: 6.00 Build 0)  -->
<svg version="1.1" id="Layer_5" xmlns="http://www.w3.org/2000/svg" xmlns:xlink="http://www.w3.org/1999/xlink" x="0px" y="0px"
	 viewBox="0 0 512 512" style="enable-background:new 0 0 512 512;" xml:space="preserve">
<style type="text/css">
	.st0{fill:#138B90;}
</style>
<g>
	<path class="st0" d="M252.2,328c14.9,0,28.9-5.8,39.5-16.4l63.6-63.6H392c13.2,0,24-10.8,24-24v-16c0-7.4-3.4-13.9-8.6-18.3
		c5.3-5.7,8.6-13.3,8.6-21.7v-14.3c0-5.4,2.6-10.3,6.9-13.1c20.7-13.3,33.1-36,33.1-60.6c0-20.5-8.8-40.1-24-53.7
		c-15.3-13.6-35.8-20.1-56.3-17.8c-32.4,3.7-58.9,29.8-63,62.1c-3.6,28.1,8.9,54.9,32.7,70.1c4.1,2.6,6.7,7.8,6.7,13.3v15.7
		c-4.6,1.5-8.9,4-12.5,7.5L320,196.7l-64.2,64.2c-8.9-7.9-26.8-22.3-45.3-28.5c-8.9-3-18.6-5.2-29-6.7c-7.7-1.1-13.5-7.9-13.5-15.8
		v-10.6c12.2-7.1,21.9-18.1,27.3-31.3h4.7c17.6,0,32-14.4,32-32c0-6.8-2.2-13.2-5.9-18.4l0.1-0.2c3.8-7.6,5.8-16,5.8-24.5
		c0-20.9-11.6-39.7-30.3-49l-1.8-0.9c-0.5-19.4-16.3-35-35.8-35H112C82.3,8,57.9,31.3,56.1,60.6l-1.6,1.6C45.2,71.5,40,84,40,97.2
		c0,5.3,0.9,10.6,2.5,15.7l2.2,6.6c-2.9,4.8-4.7,10.4-4.7,16.5c0,17.6,14.4,32,32,32h4.7c5.4,13.2,15.1,24.2,27.3,31.3v11.5
		c0,8.1-6,14.9-14,15.9l-22.6,2.8c-14.9,1.9-28.9,8.7-39.5,19.3C15,261.6,8,278.6,8,296.8V424c0,13.2,10.8,24,24,24h16
		c2.8,0,5.5-0.6,8-1.5V504h160V316l9.5,5.2C233.6,325.6,242.9,328,252.2,328L252.2,328z M400,168c0,7.3-4.9,13.4-11.6,15.3
		c-4.5-7.6-11.9-12.8-20.4-14.6V168H400z M328.5,72.6c3.2-25.1,23.8-45.4,49-48.2c16.2-1.9,31.8,3.1,43.8,13.8
		C433.2,48.8,440,64.1,440,80c0,19.1-9.6,36.7-25.8,47.1c-8.5,5.4-13.6,14.7-14.1,24.9h-32.2c-0.6-10.3-5.7-19.5-14-24.8
		C335.4,115.4,325.7,94.5,328.5,72.6L328.5,72.6z M350.8,188.5c2.8-2.8,6.8-4.5,10.8-4.5c5.8,0,11,3.2,13.6,8.4l3.8,7.6H392
		c4.4,0,8,3.6,8,8v16c0,4.4-3.6,8-8,8h-36.7l-24-24L350.8,188.5z M165.9,269.7l-19.2-15.4l14.6-21.9c0.2,0.2,0.3,0.3,0.5,0.5
		L165.9,269.7z M151.4,341.3L136,356.7l-15.4-15.4l12-72.3l3.4-2.7l3.4,2.7L151.4,341.3z M110.1,233.8c0.3-0.3,0.6-0.6,0.9-0.9
		l14.3,21.4l-19.2,15.4L110.1,233.8z M200,152h-0.6c0.3-2.6,0.6-5.3,0.6-8v-24c8.8,0,16,7.2,16,16S208.8,152,200,152z M72,152
		c-8.8,0-16-7.2-16-16s7.2-16,16-16v24c0,2.7,0.2,5.4,0.6,8H72z M72.1,104H72c-5.2,0-10,1.4-14.4,3.6c-1.1-3.3-1.6-6.8-1.6-10.3
		c0-9,3.5-17.4,9.8-23.8l6.2-6.1V64c0-22.1,17.9-40,40-40h52.1c11,0,19.9,8.9,19.9,19.9c0,8.6-5.5,16.2-13.6,18.9l-4.9,1.6l5.1,15.2
		l4.9-1.6c9.5-3.2,16.9-10,21-18.6c12.1,6.9,19.5,19.6,19.5,33.6c0,4.8-0.9,9.6-2.7,14c-4.1-1.9-8.6-3-13.3-3V88h-36.2
		c-22.2,0-44.4-5.2-64.2-15.2L96,71.1l-3.6,1.8C80.4,78.9,72.8,90.7,72.1,104L72.1,104z M88,144v-38.1c0-6.7,3.2-12.9,8.4-16.8
		c21,9.8,44.2,14.9,67.3,14.9H184v40c0,26.5-21.5,48-48,48S88,170.5,88,144z M136,208c5.5,0,10.9-0.8,16-2.1v4.1
		c0,2.2,0.3,4.4,0.7,6.5L136,241.6l-16.6-24.8c0.4-1.9,0.6-3.9,0.6-5.9v-4.9C125.1,207.2,130.5,208,136,208L136,208z M39.2,260.2
		c8.1-8.1,18.8-13.3,30.2-14.8l22.6-2.8c0.4,0,0.7-0.2,1.1-0.2l-7.1,64l28-22.4l-10.5,62.8l32.6,32.6l32.6-32.6l-10.5-62.8l28,22.4
		l-7.2-64.8c0.1,0,0.2,0.1,0.4,0.1c9.4,1.3,18.3,3.3,26.2,6c16.3,5.4,33.1,19.4,40.7,26.2l-5.3,10.7l14.3,7.2l7.4-14.8l57.4-57.4
		l20.7,20.7l-60.3,60.3c-7.5,7.5-17.5,11.7-28.2,11.7c-6.6,0-13.2-1.7-19.1-4.9l-17-9.3c0.3-4.6,2.2-8.9,5.5-12.2l-11.3-11.3
		c-6.7,6.7-10.3,15.5-10.3,25V392H87c-1.1-3.8-3-7.4-5.9-10.2l-9.1-9.1v-73.4c0-9.4-3.7-18.3-10.3-25l-11.3,11.3
		c3.6,3.6,5.7,8.5,5.7,13.7V368H24v-71.2C24,283.1,29.5,269.8,39.2,260.2L39.2,260.2z M48,432H32c-4.4,0-8-3.6-8-8v-40h36.7l9.1,9.1
		c1.4,1.4,2.2,3.3,2.2,5.3c0,2.9-1.6,5.4-4.1,6.7L56,411.1v4.9v8C56,428.4,52.4,432,48,432z M144,488v-22.7c0-11.7,7.4-22,18.5-25.7
		l-5.1-15.2c-8.9,3-16.3,8.6-21.5,15.9c-5.2-7.3-12.6-12.9-21.5-15.9l-5.1,15.2c11.1,3.7,18.5,14,18.5,25.7V488H72v-64v-3.1l3-1.5
		c5-2.5,8.8-6.6,11-11.4h114v80H144z"/>
	<path class="st0" d="M421.7,61.7l-11.3-11.3L368,92.7l-10.3-10.3l-11.3,11.3l21.7,21.7L421.7,61.7z"/>
	<path class="st0" d="M368,408v-12.7c0-10.6-8.7-19.3-19.3-19.3c-5.1,0-10.1,2.1-13.7,5.7L308.7,408H272c-13.2,0-24,10.8-24,24v32
		c0,13.2,10.8,24,24,24h96c13.2,0,24-10.8,24-24v-32C392,418.8,381.2,408,368,408z M376,464c0,4.4-3.6,8-8,8h-96c-4.4,0-8-3.6-8-8
		v-32c0-4.4,3.6-8,8-8h43.3l31-31c1.9-1.9,5.7-0.4,5.7,2.3V424h16c4.4,0,8,3.6,8,8V464z"/>
	<path class="st0" d="M280,440h80v16h-80V440z"/>
	<path class="st0" d="M480,264h-96c-13.2,0-24,10.8-24,24v32c0,13.2,10.8,24,24,24v12.7c0,10.6,8.7,19.3,19.3,19.3
		c5.1,0,10.1-2.1,13.7-5.7l26.3-26.3H480c13.2,0,24-10.8,24-24v-32C504,274.8,493.2,264,480,264z M488,320c0,4.4-3.6,8-8,8h-43.3
		l-31,31c-1.9,1.9-5.7,0.4-5.7-2.3V328h-16c-4.4,0-8-3.6-8-8v-32c0-4.4,3.6-8,8-8h96c4.4,0,8,3.6,8,8V320z"/>
	<path class="st0" d="M392,296h80v16h-80V296z"/>
</g>
</svg>
