<?xml version="1.0" encoding="utf-8"?>
<!-- Generator: Adobe Illustrator 24.0.1, SVG Export Plug-In . SVG Version: 6.00 Build 0)  -->
<svg version="1.1" id="Capa_1" xmlns="http://www.w3.org/2000/svg" xmlns:xlink="http://www.w3.org/1999/xlink" x="0px" y="0px"
	 viewBox="0 0 512 512" style="enable-background:new 0 0 512 512;" xml:space="preserve">
<style type="text/css">
	.st0{fill:#138B90;}
</style>
<g>
	<path class="st0" d="M471.4,146.7H362.9V71.3c0-22.4-18.2-40.6-40.6-40.6H40.6C18.2,30.7,0,48.9,0,71.3V183c0,4.1,3.4,7.5,7.5,7.5
		s7.5-3.4,7.5-7.5V71.3c0-14.1,11.5-25.6,25.6-25.6h281.6c14.1,0,25.6,11.5,25.6,25.6v198.8c0,14.1-11.5,25.6-25.6,25.6H160
		c-4.2,0-8.2,1.6-11.2,4.6l-49.7,49.7c-0.1,0.1-0.4,0.4-0.9,0.2c-0.5-0.2-0.5-0.5-0.5-0.7v-38c0-8.7-7.1-15.8-15.8-15.8H40.6
		c-14.1,0-25.6-11.5-25.6-25.6V213c0-4.1-3.4-7.5-7.5-7.5S0,208.9,0,213v57.1c0,22.4,18.2,40.6,40.6,40.6H82c0.4,0,0.8,0.4,0.8,0.8
		v38c0,6.4,3.8,12.1,9.7,14.6c2,0.8,4,1.2,6.1,1.2c4.1,0,8.1-1.6,11.1-4.6l39.3-39.3v64.7c0,22.4,18.2,40.6,40.6,40.6h90.8
		c4.1,0,7.5-3.4,7.5-7.5s-3.4-7.5-7.5-7.5h-90.8c-14.1,0-25.6-11.5-25.6-25.6v-75.3h158.2c22.4,0,40.6-18.2,40.6-40.6V161.7h108.5
		c14.1,0,25.6,11.5,25.6,25.6v198.8c0,14.1-11.5,25.6-25.6,25.6H430c-8.7,0-15.8,7.1-15.8,15.8v38c0,0.2,0,0.5-0.5,0.7
		c-0.5,0.2-0.7,0-0.9-0.2l-49.7-49.7c-3-3-6.9-4.6-11.2-4.6h-41.4c-4.1,0-7.5,3.4-7.5,7.5s3.4,7.5,7.5,7.5H352
		c0.2,0,0.4,0.1,0.6,0.2l49.7,49.7c3,3,7,4.6,11.1,4.6c2,0,4.1-0.4,6.1-1.2c5.9-2.5,9.7-8.2,9.7-14.6v-38c0-0.4,0.4-0.8,0.8-0.8
		h41.4c22.4,0,40.6-18.2,40.6-40.6V187.3C512,164.9,493.8,146.7,471.4,146.7L471.4,146.7z"/>
	<path class="st0" d="M231.9,353c0,13.3,10.8,24.1,24.1,24.1c13.3,0,24.1-10.8,24.1-24.1s-10.8-24.1-24.1-24.1
		C242.7,328.9,231.9,339.7,231.9,353z M265.1,353c0,5-4.1,9.1-9.1,9.1s-9.1-4.1-9.1-9.1s4.1-9.1,9.1-9.1S265.1,348,265.1,353z"/>
	<path class="st0" d="M157.4,253.6c0,13.3,10.8,24.1,24.1,24.1c13.3,0,24.1-10.8,24.1-24.1c0-13.3-10.8-24.1-24.1-24.1
		S157.4,240.3,157.4,253.6L157.4,253.6z M190.5,253.6c0,5-4.1,9.1-9.1,9.1c-5,0-9.1-4.1-9.1-9.1s4.1-9.1,9.1-9.1
		C186.4,244.5,190.5,248.6,190.5,253.6L190.5,253.6z"/>
	<path class="st0" d="M205.5,172.9c21.5-9.9,34.6-32.1,33-55.9c-1.9-28.3-24.8-51.1-53.1-53.1c-15.8-1.1-31.5,4.5-43,15.2
		c-11.6,10.8-18.2,26-18.2,41.8c0,13.3,10.8,24.1,24.1,24.1s24.1-10.8,24.1-24.1c0-2.6,1-4.9,2.9-6.6c1.9-1.7,4.3-2.6,6.9-2.4
		c4.3,0.3,8.1,4,8.3,8.4c0.3,3.9-2,7.6-5.6,9.1c-16.7,6.9-27.5,23.1-27.5,41.3v16.6c0,13.3,10.8,24.1,24.1,24.1s24.1-10.8,24.1-24.1
		L205.5,172.9L205.5,172.9z M197.5,160.1c-4.2,1.7-7,5.9-7,10.7v16.6c0,5-4.1,9.1-9.1,9.1c-5,0-9.1-4.1-9.1-9.1v-16.6
		c0-12.1,7.1-22.9,18.2-27.4c9.6-3.9,15.6-13.6,14.9-24c-0.8-11.7-10.6-21.5-22.3-22.3c-0.6,0-1.1-0.1-1.7-0.1
		c-6.1,0-11.9,2.3-16.4,6.5c-4.9,4.6-7.7,10.9-7.7,17.6c0,5-4.1,9.1-9.1,9.1c-5,0-9.1-4.1-9.1-9.1c0-11.7,4.9-22.9,13.4-30.9
		c8.5-8,20.1-12.1,31.8-11.2c20.9,1.4,37.7,18.3,39.1,39.1C224.8,136.3,214.3,153.2,197.5,160.1L197.5,160.1z"/>
	<path class="st0" d="M429.2,353c0-13.3-10.8-24.1-24.1-24.1S381,339.7,381,353s10.8,24.1,24.1,24.1S429.2,366.2,429.2,353z
		 M396,353c0-5,4.1-9.1,9.1-9.1s9.1,4.1,9.1,9.1s-4.1,9.1-9.1,9.1C400.1,362,396,358,396,353z"/>
	<path class="st0" d="M330.6,377c13.3,0,24.1-10.8,24.1-24.1s-10.8-24.1-24.1-24.1c-13.3,0-24.1,10.8-24.1,24.1S317.3,377,330.6,377
		z M330.6,343.9c5,0,9.1,4.1,9.1,9.1s-4.1,9.1-9.1,9.1c-5,0-9.1-4.1-9.1-9.1S325.6,343.9,330.6,343.9z"/>
</g>
</svg>
