<?xml version="1.0" encoding="utf-8"?>
<!-- Generator: Adobe Illustrator 24.0.1, SVG Export Plug-In . SVG Version: 6.00 Build 0)  -->
<svg version="1.1" id="Layer_1" xmlns="http://www.w3.org/2000/svg" xmlns:xlink="http://www.w3.org/1999/xlink" x="0px" y="0px"
	 viewBox="0 0 512 511" style="enable-background:new 0 0 512 511;" xml:space="preserve">
<style type="text/css">
	.st0{fill:#138B90;}
</style>
<path class="st0" d="M391.5,154.9V1.5h-273v153.4H-1v356.5h512V154.9H391.5z M391.5,244.5h29.9v29.9h-29.9V244.5z M148.4,31.4h213.3
	v243H148.4V31.4z M481.1,481.5H28.9V362h452.3V481.5z M481.1,332.1H28.9V184.7h89.6v29.9H58.7v89.6h392.5v-89.6h-59.8v-29.9h89.6
	V332.1z M118.5,244.5v29.9H88.6v-29.9H118.5z"/>
<path class="st0" d="M195.3,85.6h29.9v44.8h-29.9V85.6z"/>
<path class="st0" d="M284.9,85.6h29.9v44.8h-29.9V85.6z"/>
<path class="st0" d="M255,160.3c-32.9,0-59.7,26.8-59.7,59.7h29.9c0-16.5,13.4-29.9,29.9-29.9s29.9,13.4,29.9,29.9h29.9
	C314.7,187.1,287.9,160.3,255,160.3z"/>
</svg>
